<?xml version="1.0" standalone="no"?>
<!DOCTYPE svg PUBLIC "-//W3C//DTD SVG 20010904//EN"
 "http://www.w3.org/TR/2001/REC-SVG-20010904/DTD/svg10.dtd">
<svg version="1.0" xmlns="http://www.w3.org/2000/svg"
 width="80.000000pt" height="20.000000pt" viewBox="0 0 80.000000 20.000000"
 preserveAspectRatio="xMidYMid meet">

<g transform="translate(0.000000,20.000000) scale(0.100000,-0.100000)"
fill="#000000" stroke="none">
<path d="M138 182 c-1 -5 -23 -15 -48 -23 -40 -12 -45 -18 -48 -46 -2 -18 1
-41 7 -50 9 -16 10 -14 11 9 0 42 70 68 84 32 6 -15 10 -14 31 6 31 29 31 43
0 64 -28 18 -32 19 -37 8z"/>
<path d="M12 168 c-7 -7 -12 -38 -12 -69 0 -69 20 -89 88 -89 58 0 82 14 81
48 l-1 27 -7 -25 c-6 -23 -11 -25 -71 -25 l-65 0 -3 60 c-3 58 -2 61 25 72
l28 11 -26 1 c-14 1 -30 -4 -37 -11z"/>
<path d="M276 154 c-9 -9 -16 -32 -16 -54 0 -47 33 -76 75 -66 21 5 25 12 25
41 0 31 -3 35 -25 35 -14 0 -25 -4 -25 -10 0 -5 5 -10 10 -10 6 0 10 -7 10
-15 0 -21 -27 -19 -39 3 -20 37 17 87 49 67 5 -3 10 1 10 9 0 21 -53 21 -74 0z"/>
<path d="M492 103 c3 -66 20 -91 26 -38 2 17 9 25 23 25 15 0 19 -7 19 -31 0
-18 5 -29 11 -27 16 5 17 130 1 136 -7 2 -12 -6 -12 -22 0 -34 -37 -37 -42 -4
-2 12 -9 23 -16 26 -10 3 -12 -12 -10 -65z"/>
<path d="M700 103 c0 -67 0 -68 28 -70 35 -2 52 13 52 47 0 30 -20 52 -41 48
-8 -2 -15 7 -17 20 -7 48 -22 18 -22 -45z m57 -37 c-4 -9 -11 -16 -17 -16 -15
0 -24 26 -16 47 6 15 8 15 23 1 9 -9 13 -24 10 -32z"/>
<path d="M375 151 c-6 -11 9 -23 19 -14 9 9 7 23 -3 23 -6 0 -12 -4 -16 -9z"/>
<path d="M430 135 c0 -8 -5 -15 -12 -15 -9 0 -9 -3 0 -12 7 -7 12 -25 12 -40
0 -29 20 -45 40 -33 7 4 5 11 -5 21 -19 20 -19 40 0 48 13 5 12 9 -5 26 -24
24 -30 25 -30 5z"/>
<path d="M378 75 c5 -54 22 -50 22 6 0 25 -5 39 -13 39 -8 0 -11 -14 -9 -45z"/>
<path d="M600 80 c0 -41 1 -42 53 -44 25 -2 27 1 27 41 0 50 -17 58 -22 11 -4
-46 -28 -49 -28 -4 0 25 -4 36 -15 36 -11 0 -15 -11 -15 -40z"/>
</g>
</svg>
